<mxfile host="app.diagrams.net" agent="Mozilla/5.0 (Windows NT 10.0; Win64; x64) AppleWebKit/537.36 (KHTML, like Gecko) Chrome/130.0.0.0 Safari/537.36" version="24.8.4">
  <diagram name="Page-1" id="7ngzOwRR0cie-YqwB-3T">
    <mxGraphModel dx="954" dy="618" grid="1" gridSize="10" guides="1" tooltips="1" connect="1" arrows="1" fold="1" page="1" pageScale="1" pageWidth="850" pageHeight="1100" math="0" shadow="0">
      <root>
        <mxCell id="0" />
        <mxCell id="1" parent="0" />
        <mxCell id="x4aHXxygewXWRzORYshM-4" value="" style="edgeStyle=orthogonalEdgeStyle;rounded=0;orthogonalLoop=1;jettySize=auto;html=1;" edge="1" parent="1" source="x4aHXxygewXWRzORYshM-1" target="x4aHXxygewXWRzORYshM-3">
          <mxGeometry relative="1" as="geometry" />
        </mxCell>
        <mxCell id="x4aHXxygewXWRzORYshM-1" value="Material App" style="rounded=0;whiteSpace=wrap;html=1;" vertex="1" parent="1">
          <mxGeometry x="360" y="20" width="120" height="60" as="geometry" />
        </mxCell>
        <mxCell id="x4aHXxygewXWRzORYshM-6" value="" style="edgeStyle=orthogonalEdgeStyle;rounded=0;orthogonalLoop=1;jettySize=auto;html=1;" edge="1" parent="1" source="x4aHXxygewXWRzORYshM-3" target="x4aHXxygewXWRzORYshM-5">
          <mxGeometry relative="1" as="geometry" />
        </mxCell>
        <mxCell id="x4aHXxygewXWRzORYshM-9" value="" style="edgeStyle=orthogonalEdgeStyle;rounded=0;orthogonalLoop=1;jettySize=auto;html=1;" edge="1" parent="1" source="x4aHXxygewXWRzORYshM-3" target="x4aHXxygewXWRzORYshM-5">
          <mxGeometry relative="1" as="geometry" />
        </mxCell>
        <mxCell id="x4aHXxygewXWRzORYshM-31" value="" style="edgeStyle=orthogonalEdgeStyle;rounded=0;orthogonalLoop=1;jettySize=auto;html=1;" edge="1" parent="1" source="x4aHXxygewXWRzORYshM-3" target="x4aHXxygewXWRzORYshM-30">
          <mxGeometry relative="1" as="geometry" />
        </mxCell>
        <mxCell id="x4aHXxygewXWRzORYshM-33" value="" style="edgeStyle=orthogonalEdgeStyle;rounded=0;orthogonalLoop=1;jettySize=auto;html=1;" edge="1" parent="1" source="x4aHXxygewXWRzORYshM-3" target="x4aHXxygewXWRzORYshM-32">
          <mxGeometry relative="1" as="geometry" />
        </mxCell>
        <mxCell id="x4aHXxygewXWRzORYshM-3" value="Scaffold" style="rounded=0;whiteSpace=wrap;html=1;" vertex="1" parent="1">
          <mxGeometry x="360" y="120" width="120" height="60" as="geometry" />
        </mxCell>
        <mxCell id="x4aHXxygewXWRzORYshM-39" value="" style="edgeStyle=orthogonalEdgeStyle;rounded=0;orthogonalLoop=1;jettySize=auto;html=1;" edge="1" parent="1" source="x4aHXxygewXWRzORYshM-5" target="x4aHXxygewXWRzORYshM-38">
          <mxGeometry relative="1" as="geometry" />
        </mxCell>
        <mxCell id="x4aHXxygewXWRzORYshM-42" value="" style="edgeStyle=orthogonalEdgeStyle;rounded=0;orthogonalLoop=1;jettySize=auto;html=1;" edge="1" parent="1" source="x4aHXxygewXWRzORYshM-5" target="x4aHXxygewXWRzORYshM-41">
          <mxGeometry relative="1" as="geometry" />
        </mxCell>
        <mxCell id="x4aHXxygewXWRzORYshM-5" value="AppBar" style="rounded=0;whiteSpace=wrap;html=1;" vertex="1" parent="1">
          <mxGeometry x="360" y="260" width="120" height="60" as="geometry" />
        </mxCell>
        <mxCell id="x4aHXxygewXWRzORYshM-30" value="Color" style="rounded=0;whiteSpace=wrap;html=1;" vertex="1" parent="1">
          <mxGeometry x="40" y="260" width="120" height="60" as="geometry" />
        </mxCell>
        <mxCell id="x4aHXxygewXWRzORYshM-35" value="" style="edgeStyle=orthogonalEdgeStyle;rounded=0;orthogonalLoop=1;jettySize=auto;html=1;" edge="1" parent="1" source="x4aHXxygewXWRzORYshM-32" target="x4aHXxygewXWRzORYshM-34">
          <mxGeometry relative="1" as="geometry" />
        </mxCell>
        <mxCell id="x4aHXxygewXWRzORYshM-32" value="Center" style="rounded=0;whiteSpace=wrap;html=1;" vertex="1" parent="1">
          <mxGeometry x="650" y="260" width="120" height="60" as="geometry" />
        </mxCell>
        <mxCell id="x4aHXxygewXWRzORYshM-37" value="" style="edgeStyle=orthogonalEdgeStyle;rounded=0;orthogonalLoop=1;jettySize=auto;html=1;" edge="1" parent="1" source="x4aHXxygewXWRzORYshM-34" target="x4aHXxygewXWRzORYshM-36">
          <mxGeometry relative="1" as="geometry" />
        </mxCell>
        <mxCell id="x4aHXxygewXWRzORYshM-34" value="Image" style="rounded=0;whiteSpace=wrap;html=1;" vertex="1" parent="1">
          <mxGeometry x="650" y="400" width="120" height="60" as="geometry" />
        </mxCell>
        <mxCell id="x4aHXxygewXWRzORYshM-36" value="NetworkImage" style="whiteSpace=wrap;html=1;rounded=0;" vertex="1" parent="1">
          <mxGeometry x="650" y="540" width="120" height="60" as="geometry" />
        </mxCell>
        <mxCell id="x4aHXxygewXWRzORYshM-38" value="Text" style="rounded=0;whiteSpace=wrap;html=1;" vertex="1" parent="1">
          <mxGeometry x="410" y="400" width="120" height="60" as="geometry" />
        </mxCell>
        <mxCell id="x4aHXxygewXWRzORYshM-41" value="Color" style="rounded=0;whiteSpace=wrap;html=1;" vertex="1" parent="1">
          <mxGeometry x="290" y="400" width="120" height="60" as="geometry" />
        </mxCell>
      </root>
    </mxGraphModel>
  </diagram>
</mxfile>
